<?xml version="1.0" standalone="no"?>
<!DOCTYPE svg PUBLIC "-//W3C//DTD SVG 20010904//EN" "http://www.w3.org/TR/2001/REC-SVG-20010904/DTD/svg10.dtd">
<!-- Created using Krita: https://krita.org -->
<svg xmlns="http://www.w3.org/2000/svg"
     xmlns:sodipodi="http://sodipodi.sourceforge.net/DTD/sodipodi-0.dtd"
     width="297.6pt"
     height="420.96pt"
     viewBox="0 0 297.6 420.96">
<defs/>
<path id="shape0" transform="translate(73.0721241180799, 96.6133810656717)" fill="#ffebaf" fill-rule="evenodd" stroke="#ffcf40" stroke-width="5.78996906346676" stroke-linecap="square" stroke-linejoin="bevel" d="M45.1733 10.2198L21.91 17.0797L5.87999 34.836L0 55.6955L0.419999 77.2551L8.18999 99.188L27.93 113.867L33.3433 108.078L39.9933 86.3083L53.8066 78.9817L75.7279 74.0585L103.11 85.0016L117.507 103.575L115.85 96.5981L136.36 89.1082L142.94 69.4386L137.97 45.6624L128.496 24.5462L109.387 7.95651L82.3666 0L62.0899 2.30995L53.0833 10.1965C52.3055 10.1965 49.6688 10.2042 45.1733 10.2198Z" sodipodi:nodetypes="ccccccccccccccccccccccc"/><path id="shape1" transform="translate(52.072152311926, 171.301880423957)" fill="#ffde7c" fill-rule="evenodd" stroke="#ffcf40" stroke-width="5.78996906346676" stroke-linecap="square" stroke-linejoin="bevel" d="M25.7366 18.3863L15.6333 15.073L3.96666 23.2629L0 33.9727L10.5233 59.9888L34.09 87.6382L75.9499 101.825L114.357 99.188L145.646 87.3582L166.063 67.152L172.41 39.1781L168.816 18.3396L159.67 11.2698L155.353 16.0763L140.396 22.8195L139.883 23.4495L113.61 5.55322L96.7278 0L72.5432 5.57655L59.3599 14.2797L55.7899 26.2495L50.6799 39.1781C50.3377 36.9522 42.0233 30.0216 25.7366 18.3863Z" sodipodi:nodetypes="ccccccccccccccccccccccc"/><path id="shape2" transform="translate(106.462079289865, 176.131783381522)" fill="#ff9546" fill-rule="evenodd" stroke="#ff805c" stroke-width="5.78996906346676" stroke-linecap="square" stroke-linejoin="bevel" d="M0 34.3482L19.3433 49.489L27.3466 55.4856L51.2866 54.4356L78.3999 34.3482L81.8999 25.3862L64.8899 8.67983L42.3379 0L11.7133 8.63316C11.5267 8.72649 7.62221 17.2982 0 34.3482Z" sodipodi:nodetypes="cccccccccc"/><path id="shape3" transform="translate(166.801998279547, 146.195718190432)" fill="#664c46" fill-rule="evenodd" stroke="#000000" stroke-width="0.9336" stroke-linecap="square" stroke-linejoin="bevel" d="M0 11.5964L7.09332 5.78655L22.8666 0L18.41 6.95319C18.2078 7.29541 12.0711 8.84316 0 11.5964Z" sodipodi:nodetypes="ccccc"/><path id="shape4" transform="translate(99.0420892516902, 144.889077776791)" fill="#000000" fill-rule="evenodd" stroke="#000000" stroke-width="0.9336" stroke-linecap="square" stroke-linejoin="bevel" d="M0 0L23.52 11.9464L26.95 15.423L22.33 18.083L12.8566 15.353C12.5144 15.1975 8.22888 10.0798 0 0Z" sodipodi:nodetypes="cccccc"/><path id="shape5" transform="translate(164.912000816993, 146.802372668194)" fill="#000000" fill-rule="evenodd" stroke="#000000" stroke-width="0.9336" stroke-linecap="square" stroke-linejoin="bevel" d="M3.03333 7.02319L0 12.2498L4.71333 13.4164L16.9633 8.14317L23.0066 0C22.9289 0.0777762 16.2711 2.41884 3.03333 7.02319Z" sodipodi:nodetypes="cccccc"/><path id="shape6" transform="translate(85.8821069198337, 159.098792275134)" fill="none" stroke="#ff5b57" stroke-width="6.9276" stroke-linecap="square" stroke-linejoin="bevel" d="M0 0L7.55999 2.47328L12.9033 9.00649L6.60332 8.42316C5.73221 8.36094 3.53111 5.55322 0 0Z" sodipodi:nodetypes="ccccc"/><path id="shape7" transform="translate(181.175312315759, 160.195436908011)" fill="none" stroke="#ff5b57" stroke-width="6.9276" stroke-linecap="square" stroke-linejoin="bevel" d="M0 6.57987L10.3367 0L15.1666 2.72995C15.1355 2.8855 10.08 4.16881 0 6.57987Z" sodipodi:nodetypes="cccc"/><path id="shape8" transform="translate(99.4636511916658, 170.583509070598)" fill="none" stroke="#ffcf40" stroke-width="6.9276" stroke-linecap="square" stroke-linejoin="bevel" d="M0 39.8965L31.7028 67.5629L60.1115 66.8854L87.796 45.4858L97.141 31.0948L90.6229 21.6799L69.5032 7.42911L49.3363 0L16.4705 9.99893C16.3459 9.71859 10.8557 19.6844 0 39.8965Z" sodipodi:nodetypes="cccccccccc"/><path id="shape9" transform="translate(41.845292360727, 155.216155466055)" fill="#ffe598" fill-rule="evenodd" stroke="#ffcf40" stroke-width="6.9276" stroke-linecap="square" stroke-linejoin="bevel" d="M40.6557 57.5521L13.6832 0L0 25.7523L2.54098 49.2242L33.6171 65.6323C33.4901 65.8186 35.8363 63.1252 40.6557 57.5521Z" sodipodi:nodetypes="cccccc"/>
</svg>
