<?xml version="1.0" standalone="no"?>
<!DOCTYPE svg PUBLIC "-//W3C//DTD SVG 20010904//EN" "http://www.w3.org/TR/2001/REC-SVG-20010904/DTD/svg10.dtd">
<!-- Created using Krita: https://krita.org -->
<svg xmlns="http://www.w3.org/2000/svg"
     xmlns:sodipodi="http://sodipodi.sourceforge.net/DTD/sodipodi-0.dtd"
     width="297.648pt"
     height="420.984pt"
     viewBox="0 0 297.648 420.984">
<defs/>
<path id="shape0" transform="translate(12.3294306748214, 185.773708638595)" fill="#65afbd" fill-rule="evenodd" stroke="#ffffff" stroke-width="1.93536" stroke-linecap="square" stroke-linejoin="bevel" d="M24.7737 0L2.00615 4.22217L0 24.7183L19.7349 34.2672L43.8088 35.9235L29.6724 62.1662L45.4184 83.0438L64.9667 78.3551L74.2276 76.8622L92.8195 106.534L114.187 106.184L136.495 101.239L152.678 100.702C168.4 89.7698 174.776 82.1807 171.806 77.9352C167.35 71.567 164.271 67.928 157.81 61.5131C151.348 55.0982 151.348 55.0982 24.7737 0Z" sodipodi:nodetypes="ccccccccccccczcc"/><path id="shape1" transform="translate(17.6713950490458, 210.492)" fill="#65afbd" fill-rule="evenodd" stroke="#ffffff" stroke-width="1.93536" stroke-linecap="square" stroke-linejoin="bevel" d="M4.66547 0L0 36.7948L28.716 46.1955L41.4527 83.402L86.1246 82.4456L136.768 101.364L173.905 75.1909L191.937 45.8223L176.635 49.5546C176.013 49.1192 118.69 32.601 4.66547 0Z" sodipodi:nodetypes="cccccccccc"/><path id="shape2" transform="translate(103.119497681291, 242.083466810916)" fill="#65afbd" fill-rule="evenodd" stroke="#65afbd" stroke-width="1.93536" stroke-linecap="square" stroke-linejoin="bevel" d="M0 24.1215L36.6706 62.0977L109.055 38.001L114.304 0.00142183C114.335 -0.122988 76.2338 7.91702 0 24.1215Z" sodipodi:nodetypes="ccccc"/><path id="shape3" transform="translate(54.171865425845, 141.459237934143)" fill="#65afbd" fill-rule="evenodd" stroke="#ffffff" stroke-width="1.93536" stroke-linecap="square" stroke-linejoin="bevel" d="M4.10081 21.2991L14.777 0L0 7.51211C0.27103 7.58282 1.63797 12.1785 4.10081 21.2991Z" sodipodi:nodetypes="cccc"/><path id="shape4" transform="translate(27.2514785098431, 151.145446362786)" fill="#65afbd" fill-rule="evenodd" stroke="#ffffff" stroke-width="1.93536" stroke-linecap="square" stroke-linejoin="bevel" d="M14.5119 11.878L7.97183 0L0 11.4538L8.73189 18.6124C9.22682 18.4827 11.1535 16.238 14.5119 11.878Z" sodipodi:nodetypes="ccccc"/><path id="shape5" transform="translate(14.3303998259316, 173.770166780054)" fill="#65afbd" fill-rule="evenodd" stroke="#ffffff" stroke-width="1.93536" stroke-linecap="square" stroke-linejoin="bevel" d="M8.67886 0L0 10.1104L18.9486 7.68887C18.9014 7.25287 15.4782 4.68992 8.67886 0Z" sodipodi:nodetypes="cccc"/><path id="shape6" transform="translate(181.312041124739, 239.945676185229)" fill="none" stroke="#65afbd" stroke-width="1.93536" stroke-linecap="square" stroke-linejoin="bevel" d="M4.30586 17.8288C2.6234 16.9876 1.37643 15.7786 0.770265 13.9601C-5.81552 -5.79688 32.4557 -2.8548 16.1899 12.0165C12.2293 15.6376 6.49746 17.5185 1.23304 18.0139" sodipodi:nodetypes="cccc"/><path id="shape7" transform="translate(181.880591773594, 235.145641559491)" fill="none" stroke="#65afbd" stroke-width="1.93536" stroke-linecap="square" stroke-linejoin="bevel" d="M5.49585 19.7782C-12.531 5.35699 19.7783 -11.367 17.2503 10.6155C16.5284 16.8927 8.812 18.8538 3.84837 20.241" sodipodi:nodetypes="ccc"/><path id="shape0" transform="matrix(0.999999979490875 0 0 0.999999979490875 73.3202212206916 96.8118628331498)" fill="#ffebaf" fill-rule="evenodd" stroke="#ffcf40" stroke-width="5.78996906346676" stroke-linecap="square" stroke-linejoin="bevel" d="M45.1733 10.2198L21.91 17.0797L5.87999 34.836L0 55.6955L0.419999 77.2551L8.18999 99.188L27.93 113.867L33.3433 108.078L39.9933 86.3083L53.8066 78.9817L75.7279 74.0585L103.11 85.0016L117.507 103.575L115.85 96.5981L136.36 89.1082L142.94 69.4386L137.97 45.6624L128.496 24.5462L109.387 7.95651L82.3666 0L62.0899 2.30995L53.0833 10.1965C52.3055 10.1965 49.6688 10.2042 45.1733 10.2198Z" sodipodi:nodetypes="ccccccccccccccccccccccc"/><path id="shape1" transform="matrix(0.999999979490875 0 0 0.999999979490875 52.0721512439717 171.301885499927)" fill="#ffde7c" fill-rule="evenodd" stroke="#ffcf40" stroke-width="5.78996906346676" stroke-linecap="square" stroke-linejoin="bevel" d="M25.7366 18.3863L15.6333 15.073L3.96666 23.2629L0 33.9727L10.5233 59.9888L34.09 87.6382L75.9499 101.825L114.357 99.188L145.646 87.3582L166.063 67.152L172.41 39.1781L168.816 18.3396L159.67 11.2698L155.353 16.0763L140.396 22.8195L139.883 23.4495L113.61 5.55322L96.7278 0L72.5432 5.57655L59.3599 14.2797L55.7899 26.2495L50.6799 39.1781C50.3377 36.9522 42.0233 30.0216 25.7366 18.3863Z" sodipodi:nodetypes="ccccccccccccccccccccccc"/><path id="shape2" transform="matrix(0.999999979490875 0 0 0.999999979490875 106.462077106421 176.131788358435)" fill="#ff9546" fill-rule="evenodd" stroke="#ff805c" stroke-width="5.78996906346676" stroke-linecap="square" stroke-linejoin="bevel" d="M0 34.3482L19.3433 49.489L27.3466 55.4856L51.2866 54.4356L78.3999 34.3482L81.8999 25.3862L64.8899 8.67983L42.3379 0L11.7133 8.63316C11.5267 8.72649 7.62221 17.2982 0 34.3482Z" sodipodi:nodetypes="cccccccccc"/><path id="shape6" transform="matrix(0.999999979490875 0 0 0.999999979490875 85.8821051584669 159.098797601378)" fill="none" stroke="#ff5b57" stroke-width="6.9276" stroke-linecap="square" stroke-linejoin="bevel" d="M0 0L7.55999 2.47328L12.9033 9.00649L6.60332 8.42316C5.73221 8.36094 3.53111 5.55322 0 0Z" sodipodi:nodetypes="ccccc"/><path id="shape7" transform="matrix(0.999999979490875 0 0 0.999999979490875 181.175308600012 160.195442211764)" fill="none" stroke="#ff5b57" stroke-width="6.9276" stroke-linecap="square" stroke-linejoin="bevel" d="M0 6.57987L10.3367 0L15.1666 2.72995C15.1355 2.8855 10.08 4.16881 0 6.57987Z" sodipodi:nodetypes="cccc"/><path id="shape8" transform="matrix(0.999999979490875 0 0 0.999999979490875 99.4636491517534 170.583514161301)" fill="none" stroke="#ffcf40" stroke-width="6.9276" stroke-linecap="square" stroke-linejoin="bevel" d="M0 39.8965L31.7028 67.5629L60.1115 66.8854L87.796 45.4858L97.141 31.0948L90.6229 21.6799L69.5032 7.42911L49.3363 0L16.4705 9.99893C16.3459 9.71859 10.8557 19.6844 0 39.8965Z" sodipodi:nodetypes="cccccccccc"/><path id="shape9" transform="matrix(0.999999979490875 0 0 0.999999979490875 41.8452915025167 155.216160871929)" fill="#ffe598" fill-rule="evenodd" stroke="#ffcf40" stroke-width="6.9276" stroke-linecap="square" stroke-linejoin="bevel" d="M40.6557 57.5521L13.6832 0L0 25.7523L2.54098 49.2242L33.6171 65.6323C33.4901 65.8186 35.8363 63.1252 40.6557 57.5521Z" sodipodi:nodetypes="cccccc"/><path id="shape8" transform="translate(98.9659432996784, 145.1793772055)" fill="#241c03" fill-rule="evenodd" stroke="#2c2c2c" stroke-width="2.55312" stroke-linecap="square" stroke-linejoin="bevel" d="M0 0L12.8802 0.774207L23.0683 6.72153L26.8866 14.9387L16.329 6.17606C15.9302 6.22298 10.4872 4.1643 0 0Z" sodipodi:nodetypes="cccccc"/><path id="shape9" transform="translate(165.531407773338, 146.382465991492)" fill="#000000" fill-rule="evenodd" stroke="#2c2c2c" stroke-width="2.55312" stroke-linecap="square" stroke-linejoin="bevel" d="M0 10.9973L6.54569 3.6247L17.508 0L24.9335 1.02055L16.7161 1.90033L6.40492 6.45759C5.94743 6.5397 3.81246 8.05293 0 10.9973Z" sodipodi:nodetypes="ccccccc"/><path id="shape10" transform="translate(189.20197345744, 146.784375550335)" fill="none" stroke="#241c03" stroke-width="1.20888" stroke-linecap="square" stroke-linejoin="bevel" d="M0 0L6.35216 0.149042L8.4104 1.5401C8.75107 1.64893 5.9476 1.13556 0 0Z" sodipodi:nodetypes="cccc"/><path id="shape11" transform="translate(189.606524154682, 148.033491125143)" fill="none" stroke="#241c03" stroke-width="1.20888" stroke-linecap="square" stroke-linejoin="bevel" d="M0 0.0709725L5.23077 0C5.29701 0.0709725 3.55342 0.09463 0 0.0709725Z" sodipodi:nodetypes="ccc"/><path id="shape12" transform="translate(165.976162572486, 148.370507319077)" fill="none" stroke="#241c03" stroke-width="1.20888" stroke-linecap="square" stroke-linejoin="bevel" d="M0 9.4063L12.5963 0.914403L31.2533 0L14.2409 2.78574C13.5462 2.60617 8.79923 4.81302 0 9.4063Z" sodipodi:nodetypes="ccccc"/><path id="shape13" transform="translate(78.3577414635333, 233.622771899658)" fill="#65afbd" fill-rule="evenodd" stroke="#4cb1c5" stroke-width="1.93536" stroke-linecap="square" stroke-linejoin="bevel" d="M13.9435 22.3127L7.96773 0L0 7.67054C0.291218 8.11318 4.93906 12.9939 13.9435 22.3127Z" sodipodi:nodetypes="cccc"/><path id="shape14" transform="translate(100.164146812308, 247.828120580573)" fill="#65afbd" fill-rule="evenodd" stroke="#4cb1c5" stroke-width="1.93536" stroke-linecap="square" stroke-linejoin="bevel" d="M0 5.0671L18.1021 0L18.0322 8.07241C16.2383 8.5733 10.2276 7.57153 0 5.0671Z" sodipodi:nodetypes="cccc"/>
</svg>
